<?xml version="1.0" encoding="UTF-8"?>
<svg version="1.1" viewBox="0 0 2048 1587" width="178" height="138" xmlns="http://www.w3.org/2000/svg">
<path transform="translate(1031,638)" d="m0 0h7l10 3 6 4 5 8 4 13v10l-4 11 1 13 10 29 8 21 9 24 15 39 8 20 7 20 8 20 9 23 13 33 14 38 4 15v6l-5 4-14 3-11 1-5 3-10 16-12 16-11 11-14 9-11 4-4 1h-16l-12-3-10-5-9-7-11-11-10-15-9-15-4-5-1-4-1 5-16-2-10-3-4-5 1-7 7-19 10-25 1-4v-9l-4-19 1-9 3-9 7-6 9-3 11 1 10 5 5 4 5 8 1 3v9l-3 7-6 8-7 7-9 7-9 10-7 14-1 7 1 8 1-1h7l10 3 6 4 3 4 6 15 7 13 8 10 10 7 12 4 5 1h11l11-3 10-6 10-10 7-11 5-11 4-15 2-2h3l-11-23-8-16-22-45-17-35-19-40-11-25-11-24-13-28-2-4v-5l13-10 6-3h5l4 5 11 29 24 60 16 39 11 28 13 31 11 30 4 14 1 11 3 11h13l2-3-1-10-10-30-9-24-11-27-15-39-7-18-15-38-6-15-12-31-10-23-6-11-4-5-8-7-10-10-7-11-3-13v-4l6-6 5-2 6-7zm10 18-6 4-9 3 7 11 10 9 1-3v-8l2-14zm-46 231-4 4v16l2 8 4 1 5-3 3-6 1-5v-7l-4-7z" fill="#616261"/>
<path transform="translate(655,476)" d="m0 0 7 1 20 6 33 11h12l6-1h16l10 4 8 6 4 8 1 4v11l-4 8-7 8-10 7-6 1-7-1-6-4-11-10-7-8-12-12-12-7-14-6-2 9-6 12-7 9-3 3-5 2-11 2-10 6-10 9-6 9-3 8-1 6v9l3 13 7 14 10 9 11 7 16 4 7 3 2 5 4 24 5-1 30-11 25-10 45-17 30-11 20-8 52-20 24-9 22-8 10-3 8-6 6-7 7-11 9-10 9-5 8 1 8 4 8 8 8 13-2 11-8 16-7 8-5 2-10-1-20-8-4 1-8 1-28 11-27 11-15 6-48 19-37 15-30 12-46 18-29 11-16 5h-7l-5-6-3-13-3-16-5-5-13-7-14-10-8-8-7-11-6-12-3-15v-12l2-12 8-15 9-12 8-8 13-9 13-7 3-4 2-9 2-20zm90 36-9 1 2 9 5 9 2 2h3l5-16-3-4zm233 39-4 5-3 8 3 2 1 3 8 7 2 1-2-5-3-4 1-1 4-7v-5l-3-4z" fill="#606160"/>
<path transform="translate(1460,474)" d="m0 0 6 1 4 8 3 28 17 8 12 9 11 11 10 15 5 13 2 15-1 15-3 10-7 13-8 10-10 10-12 8-14 6-2 3-4 25-4 10-4 2-28-11-24-11h-12l-10 6-9 1-11-4-11-9-6-12-1-7 4-10 7-8 10-6h14l9 4 14 14 7 8 5 4 13 8 7 4 10 4 2-10 5-18 3-6 5-3 16-4 10-5 5-4 7-10 4-8 2-11v-14l-4-12-8-11-7-6-12-6-15-6-6-4-4-5-1-4-1-15-1-3-9 3-20 9-43 16-53 18-27 10-41 14-29 11-26 11-13 6-9 2-2-1-1 5-7 12-5 6-8 7-3 3-7 3-6 2-3-4h-4l-5-5-6-7-4-8v-8l4-13 3-6 9-6 9-3h6l8 3 10 2 6 1 26-9 31-12 28-11 40-17 28-11 23-10 45-18 41-16 21-8zm-320 122-2 2v17l3 14 7-6 6-9 2-4-1-5-5-5-7-4zm34 1m203 42-4 3-1 6 5-3 1-2 6-1-1-2z" fill="#606160"/>
<path transform="translate(846,222)" d="m0 0 5 1 6 9 11 24 8 20 10 8 11 8 8 9 5 11v8l-6 12-8 7-6 3h-15l-14-8-4-5-1-4v-15l2-12v-14l-6-20-4-9-2-3-7 1-14 11-7 2-21-9-12-3-12-1-12 2-12 6-9 9-6 10-3 9-1 6v8l4 16 6 12 6 7-2 6-9 15-4 11 5 2 18 8 29 13 17 7 12 6 19 8 41 18 26 11 34 15 39 17 13 5 6 3h8l9 1 11-6h6l11 6 5 5 5 6 4 9 1 9-6 9-7 7-13 9-4 1-8-4-10-7-7-5-6-10-2-5-7-4-17-8-8-4-19-8-19-9-36-16-39-17-29-13-30-13-26-11-27-12-19-10-9-7-1-7 5-10 9-12 3-6v-7l-8-22-1-5v-13l4-15 8-15 10-13 9-8 13-8 7-3 5-1h18l16 3 25 6 5-3 10-10zm31 76-1 4v22l4 5 5-1 2-3 2-11-1-7-10-9zm143 197-6 4-1 2v7l5 12 4 4 4-10 2-7-1-9-2-3z" fill="#606160"/>
<path transform="translate(1103,626)" d="m0 0 6 3v2l4 2 8 7 5 6 4 8 7 8 15 9 16 7 17 8 39 17 35 16 28 12 31 13 35 15 23 10 29 13 11 7 4 5-1 8-6 10-11 13 8 27 1 5v15l-4 15-4 10-8 12-11 12-8 6-12 6-9 2h-21l-12-3-17-8h-4l-8 7-10 11-3 2-6-1-7-6-8-16-10-23-6-11-6-5-8-4-12-11-5-10 1-7 6-10 8-8 9-6 8-1 10 7 8 9 6 12-2 9-3 8v14l5 15 8 16 6 3 10-9 5-5 5-3 7 3 16 10 11 3 7 1h12l9-3 9-6 5-4 9-14 3-9 1-10-2-18-4-12-6-12 1-7 8-16 4-6-16-8-24-10-25-11-26-11-58-27-60-26-31-13-13-5-5-3v-2h-12l-8 4-5 3-7 1-12-5-10-9-5-8-1-2v-16l5-10 9-8 11-7zm-6 21-3 4-1 5 4 6 2 5 5 3 2 5h1v-5h6l-2-3-1-9-5-8-5-3zm10 28 1 3zm1 3 1 2zm131 161-6 5-2 9 4 8 4 3h3l4-8 3-5-1-6-4-6z" fill="#616261"/>
<path transform="translate(1048,114)" d="m0 0h21l12 3 16 8 8 7 8 8 9 14 8 14 2 3 5 2h2 13l12 3 3 3-1 10-11 28-8 19-1 7 6 16v14l-5 10-5 6-10 6h-11l-10-4-9-9-4-8-1-3v-9l4-9 7-7 14-10 11-11 5-8 3-13-3-8-4-2-12-1-7-7-11-25-8-11-7-6-12-6-14-2-13 1-11 4-11 8-8 10-8 16-4 13-2 11-12-4-12-1 7 26 10 30 11 28 18 48 7 19 8 20 8 21 7 19 10 26 8 20 5 11 3 7v20l-2 11v9l1 8 7-3 3-4v-9l-5-18-1-13 5 2 11 8 6 7 5 15 1 9-10 9-8 6-7 5-9-3-6-4-9-3-2-3-3-15v-10l3-10v-8l-4-15-15-41-17-42-11-28-17-43-11-28-15-37-10-27-8-24-1-8 4-6 4-2 6-1h8l9 1 6-8 8-14 11-14 5-6 11-9 8-5zm73 147-5 5 2 7 8 5 4-1 4-7v-5l-3-3-3-1z" fill="#616261"/>
<path transform="translate(1273,222)" d="m0 0 6 1 6 4 9 9 6 4 9-1 18-6 6-1h22l12 3 14 7 12 11 7 9 8 17 3 12v17l-5 19-3 8v9l4 6 9 10 4 9-1 7-10 6-19 8-25 11-7 12-9 12-9 7-2 1h-9l-9-2-9-6-6-8-2-5v-14l5-10 8-9 9-4h12l14 4h14l12-4 12-5 2-2-1-6-7-11-3-4v-8l6-16 5-14v-18l-2-8-5-10-7-8-10-7-12-4-6-1h-11l-13 3-17 9-7 5-3 1-5-2 3-2 1-1-9-12-2-2-4 1-5 5-8 13-13 26-9 20-17 38-15 33-9 19-15 33-13 28-12 28-6 18 3 16 1 1 1 15-8 17-8 11-4 3h-3l1-3 3-2-9-1-1-2-9 1-6-5-9-14-4-8 2-4 7-13 6-6 7-3 10-9 10-16 11-23 16-37 17-39 12-27 18-42 17-40 7-17 14-32 6-9zm55 180-4 6v4l10 2 3-8 3-2v-2zm-191 130-6 4-2 3v8l4 7 3 3 5-2 1-11v-9l-1-3zm5 29-4 7 4-2 1-5z" fill="#616161"/>
<path transform="translate(988,593)" d="m0 0 5 2 8 5 4 7 7 17 1 10-5 7-10 6-14 9-8 12-12 26-13 30-18 40-18 41-12 28-29 67-10 22-9 17-5 5-4 1-10-6-10-10-7-4-11 3-17 5-6 1h-23l-11-3-10-5-12-11-7-10-8-16-4-13-1-14 4-16 5-17-1-6-5-10-7-10-3-7 3-5 10-7 26-12 12-6 6-5 10-13 11-11 8-4 10 1 6 4 9 9 6 11 1 9-5 10-7 8-8 5-3 1h-10l-17-3h-13l-20 7-8 4h-2l6 11 7 8 2 6-1 8-6 12-5 18v12l4 13 8 11 7 7 16 9 8 2h8l8-2 16-8 11-7h6l10 9 5 5 4 5h2l9-16 8-17 11-24 13-28 18-40 8-18 11-25 19-44 13-30 6-15 2-8v-10l-2-8v-15l5-12 7-8 9-6 3 1 1 3v10l-3 6-2 17-4 13 15-10 2-6v-8l-6-12-1-8zm6 37-2 3 5 1-2-4zm-206 124-1 2v9l4 7h2l1-7 3-4v-5l-3-2z" fill="#616261"/>
<path transform="translate(1690,1192)" d="m0 0h6l1 1v37l-1 37-1 19 1 10v69l-5 1-9-4-7-9-4-13-1-4-3-45-49-2-13-1-1 33-2 30-1 7-4 3h-12l-3-1-1-2-1-15-2-95-1-32v-22l10 1 14 3 3 7 1 34v29h58l3-1 2-61 4-4 12-6z" fill="#616261"/>
<path transform="translate(456,1184)" d="m0 0h61l12 3 10 7 6 9 4 12 1 8v28l-3 16-4 9-6 8-7 3-10 2-10 1-53 1v15l-1 23-3 27-5 5-4 1h-7l-2-3-1-22v-61l-1-23v-46l1-15 3-5 8-2zm2 26-1 2v36l2 15 5 3 17 2h30l7-2 3-6 1-9v-29l-2-9-4-3z" fill="#616261"/>
<path transform="translate(836,1193)" d="m0 0h6l1 2-2 63v104l-5 1-10-3-4-3-3-7-2-15-2-43h-25l-39-1-1 27-3 39-3 2h-16l-2-5v-82l-2-78 10 2 12 3 3 3 1 3 1 58 1 3 63 2v-37l1-25 3-7z" fill="#616261"/>
<path transform="translate(1230,1185)" d="m0 0h80l2 2 1 8v14l-2 1h-72l-1 58h26l45 1 3 1 1 2v17l-1 1h-73l-1 1v58h27l39 1 6 1 2 5v10l-5 2h-86l-3-2-1-4-1-93-1-37v-44l2-2z" fill="#626362"/>
<path transform="translate(911,527)" d="m0 0 5 2 5 8 4 12v5l-6 4-30 12-27 12-32 14-62 25-46 18-30 11-5 1-4-5v-10l5-5 16-8 19-10 26-13 33-15 41-20 31-14 34-15 19-8z" fill="#606160"/>
<path transform="translate(751,343)" d="m0 0 5 2 14 8 25 10 40 14 30 11 25 9 35 13 16 6 26 10 16 6 10 4 3 3v10l-5 16-4 1v2l-6-2-16-8-16-6-16-8-3-1-2 1-13-5-24-10-42-18-20-8-24-10-26-11-17-7-10-4-2-2 1-9 4-10v-3zm183 89 5 6 2-1-5-5zm30 5v11l3-3-1-8z" fill="#606160"/>
<path transform="translate(1134,702)" d="m0 0 5 1 26 10 28 11 18 8 17 8 17 7 14 6 35 14 28 12 23 10 16 7 7 5 2 8 1 14-9-3-28-12-47-18-67-24-78-29-13-5-3-4 1-9 4-11z" fill="#606160"/>
<path transform="translate(1432,520)" d="m0 0h6l2 2v8l-9 7-14 8-17 8-19 10-34 17-20 9-62 27-30 13-18 8-9 3-4-7-5-13v-6l8-4 27-10 29-12 31-13 25-11 39-17 29-12 40-14z" fill="#606160"/>
<path transform="translate(921,646)" d="m0 0 10 3 11 3 1 1-1 10-7 17-12 29-14 34-13 31-13 30-12 28-11 25-7 14-4 9-7 13-2 2-2 4-6-9v-7l6-20 10-30 22-60 19-52 7-19 17-51 3-4z" fill="#606160"/>
<path transform="translate(1052,539)" d="m0 0h18l11 4 10 7 7 10 5 11 2 8v16l-4 10-9 10-5 6-8 4-8 2h-13l-13-3-11-6-10-11-4-9-2-13v-7l4-13 8-11 7-7 12-7z" fill="#606160"/>
<path transform="translate(1291,269)" d="m0 0 2 1-1 3v7l-18 54-11 29-7 20-17 45-16 44-10 29-5 12-4 6-6 2-14-6-4-5v-6l12-29 17-40 11-26 16-36 19-46 13-28 11-20 4-5z" fill="#616261"/>
<path transform="translate(1e3 200)" d="m0 0 7 2 7 8 9 21 9 17 8 16 11 24 19 42 19 41 8 18 10 22 7 14 3 7-1 5-7 6-10 7-4-2-6-9-15-37-11-27-14-34-18-45-15-37-8-22-7-22-2-14z" fill="#616261"/>
<path transform="translate(1048,1184)" d="m0 0h56l18 1 9 3 1 6v13l-4 2-17 1h-17l-2 79-22 1-1-4-1-76-26 1-10-1-4-4v-9l4-10 3-2z" fill="#616261"/>
<path transform="translate(1420,1184)" d="m0 0h72l4 4 1 20-1 1h-74l-1 33-1 38-2 1-16-1-5-2-1-2-1-25v-38l2-9 6-9 10-8z" fill="#606160"/>
<path transform="translate(1400,1282)" d="m0 0 15 1 5 4 1 61 72 1 2 11-1 7-3 2h-61l-15-2-6-4-6-7-4-12-2-17v-39l2-5z" fill="#616261"/>
<path transform="translate(1070,1292)" d="m0 0h19l3 2v38l-1 27-1 5h-17l-2-3-1-9z" fill="#626362"/>
<path transform="translate(928,1340)" d="m0 0h7l4 3 2 21-4 2h-11l-3-5v-12l2-7z" fill="#656665"/>
<path transform="translate(636,1341)" d="m0 0 6 2 5 5 1 3v11l-7 3-7-3-3-3-1-3v-10l3-4z" fill="#656665"/>
<path transform="translate(1333,403)" d="m0 0 2 1v2l-5 3-3-1z" fill="#676867"/>
<path transform="translate(791,757)" d="m0 0 3 1v5h-3z" fill="#606160"/>
<path transform="translate(1095,652)" d="m0 0 3 1 1 5-4-3z" fill="#787978"/>
<path transform="translate(740,516)" d="m0 0 4 3v3h-2z" fill="#6D6E6D"/>
<path transform="translate(1037,662)" d="m0 0 2 1-1 3h-3z" fill="#606160"/>
<path transform="translate(978,558)" d="m0 0 1 4-3 1z" fill="#949594"/>
<path transform="translate(745,516)" d="m0 0h2l1 4-3-1z" fill="#606160"/>
<path transform="translate(738,514)" d="m0 0h2v2h-2z" fill="#606160"/>
<path transform="translate(1122,265)" d="m0 0 2 1-2 1z" fill="#949594"/>
<path transform="translate(747,526)" d="m0 0" fill="#606160"/>
<path transform="translate(1124,264)" d="m0 0 2 1z" fill="#AFAFAF"/>
<path transform="translate(1116,973)" d="m0 0" fill="#FEFEFE"/>
<path transform="translate(1106,666)" d="m0 0" fill="#FEFEFE"/>
<path transform="translate(1105,665)" d="m0 0" fill="#FEFEFE"/>
<path transform="translate(1104,664)" d="m0 0" fill="#FEFEFE"/>
<path transform="translate(1103,663)" d="m0 0" fill="#FEFEFE"/>
<path transform="translate(984,594)" d="m0 0" fill="#606160"/>
<path transform="translate(979,556)" d="m0 0" fill="#606160"/>
<path transform="translate(749,519)" d="m0 0" fill="#606160"/>
</svg>
